<svg xmlns="http://www.w3.org/2000/svg" xmlns:xlink="http://www.w3.org/1999/xlink" width="500" zoomAndPan="magnify" viewBox="0 0 375 374.999991" height="500" preserveAspectRatio="xMidYMid meet" version="1.0"><defs><g/><clipPath id="2438a552b9"><path d="M 45.988281 45.988281 L 328.738281 45.988281 L 328.738281 328.738281 L 45.988281 328.738281 Z M 45.988281 45.988281 " clip-rule="nonzero"/></clipPath><clipPath id="a5a16a3b95"><path d="M 139.382812 140.675781 L 229 140.675781 L 229 246.425781 L 139.382812 246.425781 Z M 139.382812 140.675781 " clip-rule="nonzero"/></clipPath><clipPath id="39fc2a134f"><path d="M 182.484375 128.886719 L 238.980469 128.886719 L 238.980469 209.921875 L 182.484375 209.921875 Z M 182.484375 128.886719 " clip-rule="nonzero"/></clipPath><clipPath id="b6f397c9e9"><path d="M 159 128.742188 L 216 128.742188 L 216 210 L 159 210 Z M 159 128.742188 " clip-rule="nonzero"/></clipPath><clipPath id="e2f82c3a42"><path d="M 136.230469 128.742188 L 193 128.742188 L 193 210 L 136.230469 210 Z M 136.230469 128.742188 " clip-rule="nonzero"/></clipPath></defs><g clip-path="url(#2438a552b9)"><path fill="#947f57" d="M 187.363281 45.988281 C 109.410156 45.988281 45.988281 109.410156 45.988281 187.363281 C 45.988281 265.320312 109.410156 328.738281 187.363281 328.738281 C 265.316406 328.738281 328.738281 265.320312 328.738281 187.363281 C 328.738281 109.410156 265.316406 45.988281 187.363281 45.988281 Z M 187.363281 325.054688 C 111.441406 325.054688 49.675781 263.285156 49.675781 187.367188 C 49.675781 111.441406 111.441406 49.675781 187.363281 49.675781 C 263.285156 49.675781 325.054688 111.445312 325.054688 187.367188 C 325.054688 263.285156 263.285156 325.054688 187.363281 325.054688 Z M 187.363281 325.054688 " fill-opacity="1" fill-rule="nonzero"/></g><path fill="#947f57" d="M 187.363281 57.027344 C 115.492188 57.027344 57.023438 115.496094 57.023438 187.363281 C 57.023438 259.234375 115.496094 317.703125 187.363281 317.703125 C 259.234375 317.703125 317.699219 259.234375 317.699219 187.363281 C 317.699219 115.496094 259.234375 57.027344 187.363281 57.027344 Z M 187.363281 57.027344 " fill-opacity="1" fill-rule="nonzero"/><g fill="#3d3d3d" fill-opacity="1"><g transform="translate(116.946349, 145.294163)"><g><path d="M 5.167969 -5.15625 L -2.066406 -12.183594 L 4.027344 -10.386719 L 1.902344 -16.964844 L 9.660156 -10.023438 L 13.71875 -14.121094 L -1.847656 -27.617188 L -4.894531 -24.441406 L -2.214844 -17.046875 L -9.453125 -20.035156 L -13.167969 -15.882812 L 0.730469 -0.875 Z M 5.167969 -5.15625 "/></g></g></g><g fill="#3d3d3d" fill-opacity="1"><g transform="translate(134.213313, 128.513388)"><g><path d="M 4.6875 -2.46875 L 9.308594 -5.363281 L 11.179688 -10.332031 L 1.699219 -24.941406 L -3.21875 -22.035156 L 5.460938 -8.828125 L 3.265625 -7.835938 L -4.976562 -21.476562 L -9.265625 -18.253906 L -0.394531 -2.796875 Z M 4.6875 -2.46875 "/></g></g></g><g fill="#3d3d3d" fill-opacity="1"><g transform="translate(151.13677, 118.613443)"><g><path d="M 9.230469 -2.964844 L 11.179688 -7.109375 L 9.039062 -13.042969 L 4.503906 -14.820312 L 0.648438 -13.371094 L -0.339844 -16.941406 L 1.613281 -17.644531 L 2.878906 -17.738281 L 3.960938 -16.074219 L 7.558594 -17.824219 L 5.472656 -21.511719 L 2.921875 -22.644531 L -3.304688 -20.644531 L -5.09375 -16.644531 L -3.203125 -10.5625 L 0.960938 -8.894531 L 4.703125 -10.242188 L 6.074219 -6.6875 L 3.722656 -5.839844 L 2.183594 -8.1875 L -1.59375 -6.097656 L -0.0585938 -2.847656 L 2.867188 -0.761719 Z M 9.230469 -2.964844 "/></g></g></g><g fill="#3d3d3d" fill-opacity="1"><g transform="translate(167.839976, 113.194668)"><g><path d="M 1.179688 0.128906 L 6.488281 -0.84375 L 3.320312 -15.773438 L -1.195312 -15.03125 Z M 2.984375 -17.445312 L 2.179688 -21.195312 L -1.925781 -20.269531 L -1.648438 -16.710938 Z M 2.984375 -17.445312 "/></g></g></g><g fill="#3d3d3d" fill-opacity="1"><g transform="translate(179.213084, 111.189219)"><g><path d="M 4.578125 0.203125 L 10.964844 -0.191406 L 12.835938 -3.578125 L 12.820312 -7.785156 L 7.988281 -7.925781 L 7.84375 -4.769531 L 5.632812 -4.53125 L 5.394531 -16.261719 L 7.296875 -16.496094 L 7.632812 -13.488281 L 11.984375 -13.367188 L 12 -18.90625 L 9.097656 -20.789062 L 3.613281 -20.691406 L 0.816406 -18.144531 L 1.09375 -2.40625 Z M 4.578125 0.203125 "/></g></g></g><g fill="#3d3d3d" fill-opacity="1"><g transform="translate(196.488639, 111.363321)"><g/></g></g><g fill="#3d3d3d" fill-opacity="1"><g transform="translate(210.305365, 113.810723)"><g><path d="M 0.964844 0.691406 L 10.804688 3.960938 L 12.207031 -0.542969 L 7.296875 -2.082031 L 12.871094 -17.652344 L 8.214844 -19.316406 Z M 0.964844 0.691406 "/></g></g></g><g fill="#3d3d3d" fill-opacity="1"><g transform="translate(225.758038, 119.668789)"><g><path d="M 0.839844 0.835938 L 5.601562 3.378906 L 12.417969 -10.277344 L 8.421875 -12.507812 Z M 13.195312 -11.792969 L 14.902344 -15.230469 L 11.113281 -17.058594 L 9.113281 -14.101562 Z M 13.195312 -11.792969 "/></g></g></g><g fill="#3d3d3d" fill-opacity="1"><g transform="translate(235.904251, 125.170755)"><g><path d="M 7.472656 6.175781 L 12.015625 5.582031 L 15.859375 0.582031 L 14.910156 -4.195312 L 11.609375 -6.664062 L 14.085938 -9.417969 L 15.730469 -8.152344 L 16.492188 -7.140625 L 15.671875 -5.332031 L 19.085938 -3.242188 L 21.070312 -6.988281 L 20.648438 -9.75 L 15.605469 -13.910156 L 11.273438 -13.265625 L 7.167969 -8.390625 L 8.007812 -3.984375 L 11.160156 -1.558594 L 8.910156 1.511719 L 6.925781 -0.015625 L 8.070312 -2.574219 L 4.277344 -4.632812 L 2.367188 -1.585938 L 2.1875 2.003906 Z M 7.472656 6.175781 "/></g></g></g><g fill="#3d3d3d" fill-opacity="1"><g transform="translate(249.437804, 136.097602)"><g><path d="M 2.125 2.902344 L 6.011719 6.933594 L 17.695312 -3.527344 L 19.410156 -1.554688 L 23.078125 -5.039062 L 15.738281 -13 L 11.824219 -9.746094 L 13.832031 -7.617188 Z M 2.125 2.902344 "/></g></g></g><g clip-path="url(#a5a16a3b95)"><path fill="#3d3d3d" d="M 219.960938 149.652344 C 208.027344 139.769531 185.820312 140.75 183.742188 140.730469 C 181.726562 140.820312 159.171875 140.214844 147.691406 150.316406 C 134.960938 161.515625 137.78125 187.398438 150.476562 208.777344 C 163.03125 229.917969 178.210938 244.914062 184.601562 246.398438 C 184.601562 246.398438 184.675781 246.433594 184.710938 246.425781 C 184.746094 246.433594 184.820312 246.394531 184.820312 246.394531 C 191.183594 244.792969 206.085938 229.519531 218.25 208.15625 C 230.550781 186.546875 233.785156 161.105469 219.960938 149.652344 " fill-opacity="1" fill-rule="nonzero"/></g><path fill="#ffffff" d="M 164.867188 225.082031 C 164.867188 225.082031 145.8125 202.042969 142.929688 177.671875 C 140.050781 153.300781 157.996094 145.546875 172.621094 145.105469 C 172.621094 145.105469 151.148438 146.078125 145.34375 161.957031 C 139.679688 177.449219 147.804688 198.273438 164.867188 225.082031 " fill-opacity="1" fill-rule="nonzero"/><path fill="#ffffff" d="M 185.03125 243.027344 C 185.03125 243.027344 220.484375 218.878906 226.023438 175.011719 C 226.023438 175.011719 222.539062 211.695312 185.03125 243.027344 " fill-opacity="1" fill-rule="nonzero"/><g clip-path="url(#39fc2a134f)"><path fill="#3d3d3d" d="M 237.453125 129.792969 C 236.582031 129.101562 235.621094 128.792969 234.679688 128.90625 C 233.527344 129.046875 232.800781 129.765625 232.566406 130.03125 L 232.496094 130.101562 C 231.539062 129.726562 230.40625 129.925781 229.636719 130.703125 C 229.359375 130.980469 229.152344 131.3125 229.023438 131.671875 C 228.6875 131.804688 228.382812 132.003906 228.121094 132.265625 C 227.847656 132.542969 227.640625 132.875 227.507812 133.238281 C 227.128906 133.367188 226.78125 133.585938 226.492188 133.878906 C 226.207031 134.167969 225.992188 134.515625 225.863281 134.890625 C 225.519531 135.023438 225.203125 135.230469 224.933594 135.5 C 224.648438 135.785156 224.4375 136.132812 224.308594 136.511719 C 223.976562 136.644531 223.675781 136.84375 223.417969 137.105469 C 223.144531 137.382812 222.9375 137.707031 222.808594 138.066406 C 222.453125 138.199219 222.128906 138.40625 221.851562 138.683594 C 221.351562 139.1875 221.078125 139.855469 221.082031 140.566406 C 221.085938 140.957031 221.171875 141.339844 221.332031 141.683594 L 221.257812 141.761719 L 222.003906 143.5 L 207.546875 170.601562 C 206.691406 170.617188 205.648438 170.441406 205.40625 169.523438 C 205.132812 168.496094 205.523438 167.363281 205.902344 166.269531 C 206.164062 165.523438 206.40625 164.820312 206.441406 164.109375 C 206.5 162.886719 205.910156 161.90625 204.816406 161.414062 C 203.753906 160.933594 202.488281 161.039062 201.25 161.707031 C 199.402344 162.703125 196.984375 165.464844 196.261719 169.96875 C 195.527344 174.546875 194.832031 178.867188 191.734375 180.601562 C 189.636719 181.777344 187.492188 183.585938 185.855469 185.558594 C 184.503906 187.183594 182.855469 189.703125 182.65625 192.449219 C 182.488281 194.824219 183.261719 197.34375 184.898438 199.734375 C 186.527344 202.121094 189.003906 204.339844 192.058594 206.152344 C 195.617188 208.265625 199.410156 209.53125 202.742188 209.71875 C 203.027344 209.734375 203.316406 209.742188 203.59375 209.742188 C 207.550781 209.742188 210.621094 208.136719 212.46875 205.101562 C 214.414062 201.910156 214.820312 198.707031 215.214844 195.613281 C 215.597656 192.605469 215.929688 190.011719 217.640625 187.890625 C 219.769531 185.257812 221.074219 183.546875 221.875 182.070312 C 222.886719 180.203125 223.074219 178.632812 222.457031 177.125 C 222.183594 176.460938 221.675781 175.996094 221.027344 175.8125 C 219.832031 175.480469 218.863281 176.199219 217.738281 177.03125 C 215.652344 178.574219 214.425781 179.175781 213.136719 178.390625 L 229.363281 146.179688 C 229.675781 145.621094 230.972656 145.113281 231.753906 144.976562 L 232.832031 144.789062 L 234.863281 137.445312 C 236.507812 137.316406 237.867188 136.398438 238.554688 134.941406 C 239.421875 133.109375 238.964844 130.992188 237.453125 129.792969 " fill-opacity="1" fill-rule="nonzero"/></g><path fill="#ffffff" d="M 236.378906 131.144531 C 234.835938 129.921875 233.851562 131.191406 233.851562 131.191406 L 232.191406 132.910156 L 231.75 132.46875 L 232.234375 131.976562 C 232.214844 131.957031 232.195312 131.933594 232.175781 131.914062 C 231.8125 131.554688 231.222656 131.554688 230.863281 131.917969 C 230.5 132.285156 230.503906 132.871094 230.867188 133.234375 C 230.886719 133.253906 230.910156 133.273438 230.929688 133.289062 L 231.417969 132.800781 L 231.867188 133.246094 L 230.683594 134.476562 L 230.234375 134.03125 L 230.71875 133.542969 C 230.703125 133.519531 230.683594 133.5 230.660156 133.476562 C 230.296875 133.117188 229.710938 133.117188 229.347656 133.484375 C 228.988281 133.847656 228.988281 134.433594 229.351562 134.796875 C 229.375 134.816406 229.394531 134.835938 229.417969 134.855469 L 229.902344 134.363281 L 230.355469 134.8125 L 229.089844 136.125 L 228.605469 135.644531 L 229.089844 135.15625 C 229.070312 135.132812 229.054688 135.109375 229.03125 135.089844 C 228.667969 134.730469 228.078125 134.730469 227.71875 135.097656 C 227.359375 135.460938 227.359375 136.046875 227.722656 136.410156 C 227.746094 136.429688 227.765625 136.449219 227.789062 136.464844 L 228.273438 135.976562 L 228.765625 136.464844 L 227.53125 137.742188 L 227.046875 137.265625 L 227.53125 136.773438 C 227.515625 136.753906 227.496094 136.730469 227.472656 136.710938 C 227.109375 136.347656 226.523438 136.351562 226.160156 136.714844 C 225.800781 137.078125 225.800781 137.667969 226.167969 138.03125 C 226.1875 138.050781 226.210938 138.070312 226.230469 138.085938 L 226.714844 137.597656 L 227.207031 138.082031 L 226 139.332031 L 225.535156 138.867188 L 226.019531 138.378906 C 226 138.359375 225.980469 138.335938 225.960938 138.316406 C 225.59375 137.953125 225.007812 137.957031 224.648438 138.320312 C 224.285156 138.683594 224.289062 139.273438 224.652344 139.632812 C 224.671875 139.652344 224.695312 139.671875 224.714844 139.691406 L 225.203125 139.203125 L 225.675781 139.671875 L 224.457031 140.933594 L 223.964844 140.449219 L 224.449219 139.957031 C 224.433594 139.9375 224.414062 139.914062 224.390625 139.894531 C 224.027344 139.535156 223.441406 139.535156 223.078125 139.902344 C 222.71875 140.265625 222.722656 140.851562 223.085938 141.214844 C 223.105469 141.234375 223.125 141.253906 223.148438 141.273438 L 223.632812 140.78125 L 224.128906 141.273438 L 223.296875 142.132812 L 223.921875 143.578125 L 208.632812 172.238281 C 207.75 172.375 204.460938 172.699219 203.734375 169.964844 C 202.898438 166.800781 205.96875 163.824219 204.109375 162.988281 C 202.246094 162.152344 198.804688 165.035156 197.96875 170.246094 C 197.128906 175.453125 196.3125 180.019531 192.582031 182.109375 C 188.847656 184.199219 184.660156 188.664062 184.382812 192.574219 C 184.101562 196.480469 186.988281 201.132812 192.941406 204.667969 C 198.898438 208.203125 207.363281 210.15625 210.992188 204.203125 C 214.621094 198.25 212.390625 191.644531 216.296875 186.804688 C 220.207031 181.96875 221.695312 179.828125 220.855469 177.78125 C 220.058594 175.824219 215.601562 183.726562 210.984375 178.824219 L 227.832031 145.378906 C 228.699219 143.753906 231.457031 143.273438 231.457031 143.273438 L 233.574219 135.632812 C 237.070312 136.382812 238.238281 132.621094 236.378906 131.144531 " fill-opacity="1" fill-rule="nonzero"/><g clip-path="url(#b6f397c9e9)"><path fill="#3d3d3d" d="M 214.0625 129.792969 C 213.1875 129.101562 212.230469 128.792969 211.285156 128.90625 C 210.132812 129.046875 209.40625 129.765625 209.175781 130.03125 L 209.105469 130.101562 C 208.148438 129.726562 207.011719 129.925781 206.242188 130.703125 C 205.964844 130.980469 205.757812 131.3125 205.628906 131.671875 C 205.296875 131.804688 204.988281 132.003906 204.730469 132.265625 C 204.453125 132.542969 204.246094 132.875 204.117188 133.238281 C 203.738281 133.367188 203.390625 133.585938 203.101562 133.878906 C 202.816406 134.167969 202.601562 134.515625 202.472656 134.890625 C 202.128906 135.023438 201.8125 135.230469 201.542969 135.5 C 201.257812 135.785156 201.042969 136.132812 200.914062 136.511719 C 200.585938 136.644531 200.285156 136.84375 200.027344 137.105469 C 199.75 137.382812 199.546875 137.707031 199.417969 138.066406 C 199.0625 138.199219 198.734375 138.40625 198.460938 138.683594 C 197.960938 139.1875 197.6875 139.855469 197.691406 140.566406 C 197.691406 140.957031 197.777344 141.339844 197.941406 141.683594 L 197.863281 141.761719 L 198.613281 143.5 L 184.15625 170.601562 C 183.300781 170.617188 182.257812 170.441406 182.015625 169.523438 C 181.742188 168.496094 182.132812 167.363281 182.511719 166.269531 C 182.769531 165.523438 183.015625 164.820312 183.050781 164.109375 C 183.109375 162.886719 182.519531 161.90625 181.425781 161.414062 C 180.363281 160.933594 179.097656 161.039062 177.859375 161.707031 C 176.011719 162.703125 173.59375 165.464844 172.867188 169.96875 C 172.132812 174.546875 171.4375 178.867188 168.34375 180.601562 C 166.242188 181.777344 164.101562 183.585938 162.464844 185.558594 C 161.113281 187.183594 159.460938 189.703125 159.265625 192.449219 C 159.097656 194.824219 159.871094 197.34375 161.503906 199.734375 C 163.136719 202.121094 165.613281 204.339844 168.667969 206.152344 C 172.226562 208.265625 176.019531 209.53125 179.351562 209.71875 C 179.636719 209.734375 179.921875 209.742188 180.203125 209.742188 C 184.15625 209.742188 187.226562 208.136719 189.078125 205.101562 C 191.023438 201.910156 191.429688 198.707031 191.824219 195.613281 C 192.207031 192.605469 192.539062 190.011719 194.25 187.890625 C 196.378906 185.257812 197.683594 183.546875 198.484375 182.070312 C 199.496094 180.203125 199.679688 178.632812 199.066406 177.125 C 198.792969 176.460938 198.285156 175.996094 197.636719 175.8125 C 196.441406 175.480469 195.472656 176.199219 194.347656 177.03125 C 192.261719 178.574219 191.03125 179.175781 189.746094 178.390625 L 205.972656 146.179688 C 206.285156 145.621094 207.582031 145.113281 208.363281 144.976562 L 209.4375 144.789062 L 211.472656 137.445312 C 213.113281 137.316406 214.476562 136.398438 215.164062 134.941406 C 216.027344 133.109375 215.574219 130.992188 214.0625 129.792969 " fill-opacity="1" fill-rule="nonzero"/></g><path fill="#ffffff" d="M 212.988281 131.144531 C 211.445312 129.921875 210.457031 131.191406 210.457031 131.191406 L 208.800781 132.910156 L 208.355469 132.46875 L 208.84375 131.976562 C 208.824219 131.957031 208.804688 131.933594 208.78125 131.914062 C 208.417969 131.554688 207.832031 131.554688 207.46875 131.917969 C 207.109375 132.285156 207.109375 132.871094 207.476562 133.234375 C 207.496094 133.253906 207.519531 133.273438 207.539062 133.289062 L 208.023438 132.800781 L 208.472656 133.246094 L 207.289062 134.476562 L 206.84375 134.03125 L 207.328125 133.542969 C 207.308594 133.519531 207.289062 133.5 207.269531 133.476562 C 206.90625 133.117188 206.316406 133.117188 205.957031 133.484375 C 205.59375 133.847656 205.597656 134.433594 205.960938 134.796875 C 205.984375 134.816406 206.003906 134.835938 206.027344 134.855469 L 206.511719 134.363281 L 206.964844 134.8125 L 205.699219 136.125 L 205.210938 135.644531 L 205.699219 135.15625 C 205.679688 135.132812 205.660156 135.109375 205.640625 135.089844 C 205.277344 134.730469 204.6875 134.730469 204.328125 135.097656 C 203.964844 135.460938 203.96875 136.046875 204.332031 136.410156 C 204.351562 136.429688 204.375 136.449219 204.394531 136.464844 L 204.882812 135.976562 L 205.371094 136.464844 L 204.140625 137.742188 L 203.65625 137.265625 L 204.140625 136.773438 C 204.121094 136.753906 204.101562 136.730469 204.082031 136.710938 C 203.71875 136.347656 203.128906 136.351562 202.769531 136.714844 C 202.40625 137.078125 202.410156 137.667969 202.773438 138.03125 C 202.792969 138.050781 202.816406 138.070312 202.839844 138.085938 L 203.324219 137.597656 L 203.8125 138.082031 L 202.609375 139.332031 L 202.140625 138.867188 L 202.625 138.378906 C 202.609375 138.359375 202.589844 138.335938 202.566406 138.316406 C 202.203125 137.953125 201.617188 137.957031 201.253906 138.320312 C 200.894531 138.683594 200.894531 139.273438 201.261719 139.632812 C 201.28125 139.652344 201.300781 139.671875 201.324219 139.691406 L 201.808594 139.203125 L 202.28125 139.671875 L 201.0625 140.933594 L 200.574219 140.449219 L 201.058594 139.957031 C 201.039062 139.9375 201.023438 139.914062 201 139.894531 C 200.636719 139.535156 200.046875 139.535156 199.6875 139.902344 C 199.328125 140.265625 199.328125 140.851562 199.691406 141.214844 C 199.714844 141.234375 199.734375 141.253906 199.757812 141.273438 L 200.242188 140.78125 L 200.738281 141.273438 L 199.90625 142.132812 L 200.53125 143.578125 L 185.242188 172.238281 C 184.359375 172.375 181.066406 172.699219 180.34375 169.964844 C 179.507812 166.800781 182.578125 163.824219 180.714844 162.988281 C 178.855469 162.152344 175.410156 165.035156 174.574219 170.246094 C 173.738281 175.453125 172.921875 180.019531 169.1875 182.109375 C 165.457031 184.199219 161.269531 188.664062 160.988281 192.574219 C 160.710938 196.480469 163.59375 201.132812 169.550781 204.667969 C 175.503906 208.203125 183.972656 210.15625 187.601562 204.203125 C 191.230469 198.25 188.996094 191.644531 192.90625 186.804688 C 196.8125 181.96875 198.304688 179.828125 197.464844 177.78125 C 196.664062 175.824219 192.210938 183.726562 187.59375 178.824219 L 204.441406 145.378906 C 205.304688 143.753906 208.066406 143.273438 208.066406 143.273438 L 210.179688 135.632812 C 213.679688 136.382812 214.84375 132.621094 212.988281 131.144531 " fill-opacity="1" fill-rule="nonzero"/><g clip-path="url(#e2f82c3a42)"><path fill="#3d3d3d" d="M 191.199219 129.792969 C 190.328125 129.101562 189.371094 128.792969 188.425781 128.90625 C 187.273438 129.046875 186.546875 129.765625 186.3125 130.03125 L 186.246094 130.101562 C 185.285156 129.726562 184.152344 129.925781 183.382812 130.703125 C 183.105469 130.980469 182.898438 131.3125 182.769531 131.671875 C 182.433594 131.804688 182.128906 132.003906 181.867188 132.265625 C 181.59375 132.542969 181.386719 132.875 181.257812 133.238281 C 180.878906 133.367188 180.53125 133.585938 180.238281 133.878906 C 179.953125 134.167969 179.742188 134.515625 179.613281 134.890625 C 179.265625 135.023438 178.949219 135.230469 178.683594 135.5 C 178.398438 135.785156 178.183594 136.132812 178.054688 136.511719 C 177.726562 136.644531 177.421875 136.84375 177.167969 137.105469 C 176.890625 137.382812 176.6875 137.707031 176.554688 138.066406 C 176.199219 138.199219 175.875 138.40625 175.601562 138.683594 C 175.101562 139.1875 174.828125 139.855469 174.828125 140.566406 C 174.832031 140.957031 174.917969 141.339844 175.082031 141.683594 L 175.003906 141.761719 L 175.753906 143.5 L 161.296875 170.601562 C 160.4375 170.617188 159.398438 170.441406 159.15625 169.523438 C 158.882812 168.496094 159.273438 167.363281 159.652344 166.269531 C 159.910156 165.523438 160.15625 164.820312 160.191406 164.109375 C 160.25 162.886719 159.65625 161.90625 158.566406 161.414062 C 157.503906 160.933594 156.238281 161.039062 155 161.707031 C 153.148438 162.703125 150.734375 165.464844 150.007812 169.96875 C 149.273438 174.546875 148.578125 178.867188 145.484375 180.601562 C 143.382812 181.777344 141.238281 183.585938 139.605469 185.558594 C 138.253906 187.183594 136.601562 189.703125 136.40625 192.449219 C 136.234375 194.824219 137.011719 197.34375 138.644531 199.734375 C 140.273438 202.121094 142.75 204.339844 145.808594 206.152344 C 149.367188 208.265625 153.160156 209.53125 156.492188 209.71875 C 156.777344 209.734375 157.0625 209.742188 157.34375 209.742188 C 161.296875 209.742188 164.367188 208.136719 166.21875 205.101562 C 168.160156 201.910156 168.570312 198.707031 168.964844 195.613281 C 169.347656 192.605469 169.675781 190.011719 171.390625 187.890625 C 173.519531 185.257812 174.824219 183.546875 175.625 182.070312 C 176.636719 180.203125 176.820312 178.632812 176.203125 177.125 C 175.933594 176.460938 175.425781 175.996094 174.777344 175.8125 C 173.582031 175.480469 172.609375 176.199219 171.488281 177.03125 C 169.398438 178.574219 168.171875 179.175781 166.886719 178.390625 L 183.113281 146.179688 C 183.425781 145.621094 184.71875 145.113281 185.5 144.976562 L 186.578125 144.789062 L 188.613281 137.445312 C 190.253906 137.316406 191.617188 136.398438 192.304688 134.941406 C 193.167969 133.109375 192.714844 130.992188 191.199219 129.792969 " fill-opacity="1" fill-rule="nonzero"/></g><path fill="#ffffff" d="M 190.125 131.144531 C 188.582031 129.921875 187.597656 131.191406 187.597656 131.191406 L 185.941406 132.910156 L 185.496094 132.46875 L 185.980469 131.976562 C 185.960938 131.957031 185.945312 131.933594 185.921875 131.914062 C 185.558594 131.554688 184.96875 131.554688 184.609375 131.917969 C 184.25 132.285156 184.25 132.871094 184.613281 133.234375 C 184.636719 133.253906 184.65625 133.273438 184.679688 133.289062 L 185.164062 132.800781 L 185.613281 133.246094 L 184.429688 134.476562 L 183.984375 134.03125 L 184.46875 133.542969 C 184.449219 133.519531 184.429688 133.5 184.410156 133.476562 C 184.046875 133.117188 183.457031 133.117188 183.097656 133.484375 C 182.734375 133.847656 182.738281 134.433594 183.101562 134.796875 C 183.121094 134.816406 183.144531 134.835938 183.167969 134.855469 L 183.652344 134.363281 L 184.105469 134.8125 L 182.839844 136.125 L 182.351562 135.644531 L 182.835938 135.15625 C 182.820312 135.132812 182.800781 135.109375 182.777344 135.089844 C 182.414062 134.730469 181.828125 134.730469 181.464844 135.097656 C 181.105469 135.460938 181.105469 136.046875 181.472656 136.410156 C 181.492188 136.429688 181.511719 136.449219 181.535156 136.464844 L 182.019531 135.976562 L 182.511719 136.464844 L 181.28125 137.742188 L 180.796875 137.265625 L 181.28125 136.773438 C 181.261719 136.753906 181.242188 136.730469 181.222656 136.710938 C 180.859375 136.347656 180.269531 136.351562 179.910156 136.714844 C 179.546875 137.078125 179.550781 137.667969 179.914062 138.03125 C 179.933594 138.050781 179.957031 138.070312 179.976562 138.085938 L 180.464844 137.597656 L 180.953125 138.082031 L 179.746094 139.332031 L 179.28125 138.867188 L 179.765625 138.378906 C 179.746094 138.359375 179.730469 138.335938 179.707031 138.316406 C 179.34375 137.953125 178.753906 137.957031 178.394531 138.320312 C 178.035156 138.683594 178.035156 139.273438 178.398438 139.632812 C 178.421875 139.652344 178.441406 139.671875 178.464844 139.691406 L 178.949219 139.203125 L 179.421875 139.671875 L 178.203125 140.933594 L 177.714844 140.449219 L 178.199219 139.957031 C 178.179688 139.9375 178.160156 139.914062 178.140625 139.894531 C 177.777344 139.535156 177.1875 139.535156 176.828125 139.902344 C 176.464844 140.265625 176.46875 140.851562 176.832031 141.214844 C 176.851562 141.234375 176.875 141.253906 176.898438 141.273438 L 177.382812 140.78125 L 177.875 141.273438 L 177.046875 142.132812 L 177.671875 143.578125 L 162.382812 172.238281 C 161.496094 172.375 158.207031 172.699219 157.484375 169.964844 C 156.644531 166.800781 159.71875 163.824219 157.855469 162.988281 C 155.996094 162.152344 152.550781 165.035156 151.714844 170.246094 C 150.878906 175.453125 150.0625 180.019531 146.328125 182.109375 C 142.59375 184.199219 138.410156 188.664062 138.128906 192.574219 C 137.851562 196.480469 140.734375 201.132812 146.691406 204.667969 C 152.644531 208.203125 161.113281 210.15625 164.742188 204.203125 C 168.371094 198.25 166.136719 191.644531 170.046875 186.804688 C 173.953125 181.96875 175.441406 179.828125 174.605469 177.78125 C 173.804688 175.824219 169.347656 183.726562 164.734375 178.824219 L 181.582031 145.378906 C 182.445312 143.753906 185.203125 143.273438 185.203125 143.273438 L 187.320312 135.632812 C 190.816406 136.382812 191.984375 132.621094 190.125 131.144531 " fill-opacity="1" fill-rule="nonzero"/><path fill="#3d3d3d" d="M 159.089844 191.617188 L 151.566406 187.339844 C 151.34375 187.214844 151.265625 186.929688 151.394531 186.707031 L 152.082031 185.492188 C 152.210938 185.269531 152.496094 185.191406 152.71875 185.316406 L 160.242188 189.59375 C 160.464844 189.71875 160.542969 190.003906 160.414062 190.226562 L 159.726562 191.441406 C 159.597656 191.664062 159.3125 191.742188 159.089844 191.617188 " fill-opacity="1" fill-rule="nonzero"/><path fill="#3d3d3d" d="M 163.078125 184.824219 L 155.554688 180.546875 C 155.332031 180.421875 155.253906 180.136719 155.382812 179.914062 L 156.070312 178.699219 C 156.195312 178.476562 156.484375 178.398438 156.707031 178.523438 L 164.230469 182.800781 C 164.453125 182.925781 164.53125 183.210938 164.402344 183.433594 L 163.714844 184.648438 C 163.585938 184.871094 163.300781 184.949219 163.078125 184.824219 " fill-opacity="1" fill-rule="nonzero"/><path fill="#3d3d3d" d="M 181.101562 191.617188 L 173.574219 187.339844 C 173.351562 187.214844 173.273438 186.929688 173.402344 186.707031 L 174.089844 185.492188 C 174.21875 185.269531 174.503906 185.191406 174.726562 185.316406 L 182.25 189.59375 C 182.472656 189.71875 182.550781 190.003906 182.425781 190.226562 L 181.734375 191.441406 C 181.609375 191.664062 181.324219 191.742188 181.101562 191.617188 " fill-opacity="1" fill-rule="nonzero"/><path fill="#3d3d3d" d="M 185.085938 184.824219 L 177.5625 180.546875 C 177.339844 180.421875 177.261719 180.136719 177.390625 179.914062 L 178.078125 178.699219 C 178.207031 178.476562 178.492188 178.398438 178.714844 178.523438 L 186.238281 182.800781 C 186.460938 182.925781 186.539062 183.210938 186.410156 183.433594 L 185.722656 184.648438 C 185.597656 184.871094 185.308594 184.949219 185.085938 184.824219 " fill-opacity="1" fill-rule="nonzero"/><path fill="#3d3d3d" d="M 204.4375 191.617188 L 196.914062 187.339844 C 196.691406 187.214844 196.613281 186.929688 196.738281 186.707031 L 197.429688 185.492188 C 197.554688 185.269531 197.839844 185.191406 198.0625 185.316406 L 205.585938 189.59375 C 205.808594 189.71875 205.886719 190.003906 205.761719 190.226562 L 205.070312 191.441406 C 204.945312 191.664062 204.660156 191.742188 204.4375 191.617188 " fill-opacity="1" fill-rule="nonzero"/><path fill="#3d3d3d" d="M 208.425781 184.824219 L 200.902344 180.546875 C 200.679688 180.421875 200.601562 180.136719 200.726562 179.914062 L 201.417969 178.699219 C 201.542969 178.476562 201.828125 178.398438 202.050781 178.523438 L 209.574219 182.800781 C 209.796875 182.925781 209.875 183.210938 209.75 183.433594 L 209.058594 184.648438 C 208.933594 184.871094 208.648438 184.949219 208.425781 184.824219 " fill-opacity="1" fill-rule="nonzero"/><path fill="#ffffff" d="M 181.277344 212.589844 L 189.554688 210.542969 L 186.414062 220.296875 L 191.160156 219.625 L 183.710938 240.953125 L 184.402344 224.316406 L 179.277344 225.203125 L 181.277344 212.589844 " fill-opacity="1" fill-rule="nonzero"/></svg>